<svg height="511pt" viewBox="0 -34 511.99917 511" width="511pt" xmlns="http://www.w3.org/2000/svg" xmlns:xlink="http://www.w3.org/1999/xlink"><linearGradient id="a"><stop offset="0" stop-color="#c08552"/><stop offset="1" stop-color="#895738"/></linearGradient><linearGradient id="b" gradientUnits="userSpaceOnUse" x1="258.5928389572" x2="167.8165050498" xlink:href="#a" y1="202.4782631792" y2="340.1557246904"/><linearGradient id="c"><stop offset="0" stop-color="#895738" stop-opacity="0"/><stop offset="1" stop-color="#5e3023"/></linearGradient><linearGradient id="d" gradientUnits="userSpaceOnUse" x1="183.0045398112" x2="344.3927315106" xlink:href="#c" y1="285.7181546326" y2="126.3472438"/><linearGradient id="e" gradientUnits="userSpaceOnUse" x1="315.742504298" x2="247.152545414" xlink:href="#c" y1="138.9713621656" y2="256.9864089536"/><linearGradient id="f" gradientUnits="userSpaceOnUse" x1="219.761537566" x2="179.229692699" xlink:href="#c" y1="177.983469909" y2="247.721915561"/><linearGradient id="g" gradientUnits="userSpaceOnUse" x1="379.0490224804" x2="335.675877569" xlink:href="#c" y1="190.8761374096" y2="86.982458258"/><radialGradient id="h" cx="373.4289667322" cy="317.6444805078" gradientUnits="userSpaceOnUse" r="122.1964823102"><stop offset="0" stop-color="#f2e9dc"/><stop offset=".4935" stop-color="#f1e7da"/><stop offset=".6712" stop-color="#efe2d3"/><stop offset=".7979" stop-color="#ead8c8"/><stop offset=".8997" stop-color="#e4cab7"/><stop offset=".9865" stop-color="#dcb7a1"/><stop offset="1" stop-color="#dab49d"/></radialGradient><linearGradient id="i" gradientUnits="userSpaceOnUse" x1="465.787682496" x2="269.7507292418" y1="385.517739476" y2="279.0975902192"><stop offset="0" stop-color="#dab49d" stop-opacity="0"/><stop offset=".4385" stop-color="#ce9e7a" stop-opacity=".439216"/><stop offset="1" stop-color="#c08552"/></linearGradient><linearGradient id="j" gradientUnits="userSpaceOnUse" x1="383.913325747" x2="343.1050007612" y1="308.0565234468" y2="501.5181155944"><stop offset="0" stop-color="#dab49d"/><stop offset=".9668" stop-color="#c08552"/></linearGradient><linearGradient id="k" gradientTransform="matrix(.324668 .949911 -.949911 .324668 -2060.615981 -106.191178)" gradientUnits="userSpaceOnUse" x1="1038.6017" x2="1092.7126" y1="-2295.5789" y2="-2231.4783"><stop offset="0" stop-color="#acc130"/><stop offset="1" stop-color="#97a03b"/></linearGradient><linearGradient id="l"><stop offset="0" stop-color="#97a03b" stop-opacity="0"/><stop offset="1" stop-color="#575c55"/></linearGradient><linearGradient id="m" gradientTransform="matrix(.324668 .949911 -.949911 .324668 -2060.615981 -106.191178)" gradientUnits="userSpaceOnUse" x1="1071.6345" x2="1022.102" xlink:href="#l" y1="-2263.7615" y2="-2307.8831"/><linearGradient id="n" gradientTransform="matrix(.324668 .949911 -.949911 .324668 -2060.615981 -106.191178)" gradientUnits="userSpaceOnUse" x1="1027.4812" x2="1040.3845" y1="-2293.1189" y2="-2276.4695"><stop offset="0" stop-color="#97a03b"/><stop offset="1" stop-color="#6c7d47"/></linearGradient><linearGradient id="o" gradientUnits="userSpaceOnUse" x1="351.7187519134" x2="365.3359499214" xlink:href="#a" y1="104.7346101996" y2="150.6294063906"/><linearGradient id="p" gradientTransform="matrix(.992678 -.149885 .149885 .992678 -12.949986 16.86752)" gradientUnits="userSpaceOnUse" x1="353.6407" x2="369.282" y1="89.7749" y2="130.6831"><stop offset="0" stop-color="#ffe548"/><stop offset=".9688" stop-color="#97a03b"/></linearGradient><linearGradient id="q" gradientTransform="matrix(.974707 -.24064 .24064 .974707 94.923294 -80.684041)" gradientUnits="userSpaceOnUse" x1="232.6007" x2="192.2241" xlink:href="#l" y1="208.7032" y2="205.9048"/><path d="m204.992188 29.363281c-21.671876-18.023437-49.527344-28.863281-79.917969-28.863281-69.074219 0-125.074219 56-125.074219 125.074219 0 40.863281 19.597656 77.148437 49.90625 99.972656l237.335938 187.890625c21.671874 18.023438 49.527343 28.863281 79.917968 28.863281 69.074219 0 125.074219-56 125.074219-125.074219 0-40.867187-19.601563-77.148437-49.90625-99.972656zm0 0" fill="url(#b)"/><path d="m367.160156 442.300781c31.6875 0 60.621094-11.792969 82.660156-31.222656-40.929687-30.859375-102.042968-71.984375-168.839843-99.886719-119.523438-49.925781-101.367188-119.523437-170.960938-158.859375-69.59375-39.335937-16.644531-13.617187-42.363281-55.976562-13.925781-22.9375-33.171875-33.453125-47.898438-38.277344-12.503906 19.472656-19.757812 42.636719-19.757812 67.496094 0 40.863281 19.597656 77.148437 49.90625 99.972656l237.335938 187.890625c21.671874 18.023438 49.527343 28.863281 79.917968 28.863281zm0 0" fill="url(#d)"/><path d="m442.328125 217.253906-237.335937-187.890625c-21.671876-18.023437-49.527344-28.863281-79.917969-28.863281-7.816407 0-15.46875.722656-22.890625 2.097656 13.007812 22.195313 31.292968 47.726563 52.144531 60.441406 41.355469 25.214844 67.582031 58.503907 114.988281 94.8125 47.410156 36.3125 94.816406 55.476563 94.816406 55.476563l125.191407 130.800781c1.898437-8.667968 2.910156-17.667968 2.910156-26.902344 0-40.867187-19.601563-77.148437-49.90625-99.972656zm0 0" fill="url(#e)"/><path d="m323.785156 292.007812s-59.511718-8.070312-104.902344-77.667968c-45.390624-69.601563-119.023437-123.058594-119.023437-123.058594s95.824219 29.25 137.179687 82.710938c41.355469 53.457031 86.746094 118.015624 86.746094 118.015624zm0 0" fill="url(#f)"/><path d="m442.328125 217.253906-134.199219-106.242187c-3.023437-.113281-5.84375-.289063-8.386718-.503907-9.550782-.8125-16.355469 9.199219-12.078126 17.78125 1.539063 3.085938 3.542969 5.585938 5.824219 7.636719l101.363281 101.363281c13.042969 14.660157 39.382813 9.832032 39.382813 9.832032 11.085937-1.722656 21.015625-4.898438 29.859375-8.921875-6.386719-7.824219-13.695312-14.867188-21.765625-20.945313zm0 0" fill="url(#g)"/><path d="m492.234375 317.222656c0 69.078125-53.191406 125.917969-118.804687 125.917969-77.214844 0-118.804688-46.753906-118.804688-115.828125 0-69.078125 53.1875-135.164062 118.804688-135.164062 65.613281 0 118.804687 56 118.804687 125.074218zm0 0" fill="url(#h)"/><path d="m386.492188 441.582031c-37.34375-3.265625-101.398438-38.667969-101.398438-88.0625 0-81.5 54.742188-109.484375 103.675781-108.523437 60.742188 1.191406 126.03125 79.421875 78.210938 141.605468-24.570313 31.949219-84.226563 38.4375-117.417969 6.242188-20.214844-19.605469-25.472656-54.851562-12.207031-75.910156 32.042969-50.871094 97.367187-22.890625 92.316406 14.308594-.617187 4.566406-1.917969 8.199218-3.71875 11.054687-5.597656 8.894531-18.652344 1.59375-15.078125-8.367187.496094-1.386719.863281-2.921876 1.078125-4.628907 2.96875-23.726562-40.601563-31.980469-54.464844-11.347656s-3.960937 53.648437 22.773438 60.871094c26.738281 7.222656 65.246093-1.726563 73.394531-25.347657 11.066406-32.074218-4.414062-85.84375-64.886719-88.707031-48.894531-2.316406-87.414062 33.820313-87.414062 88.753907 0 49.390624 47.789062 84.792968 85.136719 88.058593zm0 0" fill="url(#i)"/><path d="m379.800781 441.582031c-36.851562-3.402343-100.0625-40.289062-100.0625-91.757812 0-84.921875 54.023438-114.082031 102.3125-113.082031 59.941407 1.242187 124.371094 82.753906 77.179688 147.550781-24.246094 33.289062-83.117188 40.050781-115.871094 6.507812-19.949219-20.433593-25.136719-57.160156-12.046875-79.101562 31.625-53.007813 96.085938-23.851563 91.101562 14.910156-.613281 4.757813-1.894531 8.542969-3.667968 11.519531-5.527344 9.265625-18.410156 1.660156-14.882813-8.71875.488281-1.445312.851563-3.046875 1.0625-4.820312 2.929688-24.726563-40.066406-33.328125-53.746093-11.828125-13.679688 21.5-3.910157 55.902343 22.476562 63.425781 26.382812 7.527344 64.382812-1.796875 72.425781-26.410156 10.917969-33.421875-4.359375-89.449219-64.035156-92.433594-48.246094-2.414062-86.257813 35.242188-86.257813 92.480469 0 51.46875 47.160157 88.355469 84.011719 91.757812zm0 0" fill="url(#j)"/><path d="m390.519531 111.804688s81.542969-70.058594 121.027344 60.554687c1.648437 5.453125-1.335937 11.21875-6.71875 13.085937-25.855469 8.988282-97.40625 24.265626-114.308594-73.640624zm0 0" fill="url(#k)"/><path d="m504.832031 185.445312c2.980469-1.035156 5.222657-3.269531 6.351563-5.984374-53.011719-38.902344-120.664063-67.65625-120.664063-67.65625 16.902344 97.90625 88.453125 82.628906 114.3125 73.640624zm0 0" fill="url(#m)"/><path d="m469.746094 167.015625c-.480469-.992187-.886719-2.019531-1.304688-3.03125-.421875-1.007813-.839844-2.007813-1.203125-3.03125-.382812-1.015625-.621093-2.089844-.875-3.144531-.25-1.054688-.652343-2.027344-1.210937-2.949219-.570313-.910156-1.179688-1.796875-1.914063-2.671875 1.339844.648438 2.683594 1.292969 4.027344 1.9375l6.523437 3.234375c2.183594 1.070313 4.28125 2.261719 6.449219 3.363281 4.289063 2.277344 8.460938 4.703125 12.480469 7.421875l.742188-.851562-2.710938-2.527344-1.363281-1.269531c-.464844-.410156-.949219-.785156-1.425781-1.179688-1.925782-1.523437-3.820313-3.148437-5.820313-4.570312-3.9375-2.972656-8.003906-5.726563-12.066406-8.511719-.796875-.515625-1.59375-1.03125-2.386719-1.546875.785156-.085938 1.558594-.226562 2.316406-.492188 1.023438-.355468 2.058594-.738281 3.121094-.964843 1.054688-.246094 2.125-.4375 3.199219-.628907 1.074219-.195312 2.160156-.410156 3.253906-.542968 2.191406-.367188 4.40625-.53125 6.683594-.761719l.085937-.621094c-2.171875-.753906-4.421875-1.347656-6.714844-1.75-1.144531-.210937-2.300781-.34375-3.464843-.492187-1.160157-.085938-2.328125-.171875-3.5-.195313-1.175781-.035156-2.363281-.136719-3.558594-.183593-1.191406-.023438-2.363281.152343-3.480469.574218-.21875.085938-.4375.171875-.65625.265625-2.359375 1.015625-5.074218.769531-7.261718-.582031l-.039063-.027344c-3.804687-2.351562-7.652344-4.617187-11.492187-6.90625 1.101562-.140625 2.125-.371094 3.136718-.644531 1.035156-.300781 1.992188-.738281 2.894532-1.34375.898437-.601563 1.804687-1.230469 2.777343-1.714844.960938-.503906 1.949219-.957031 2.941407-1.414062.992187-.457031 1.988281-.933594 3.015624-1.335938 2.027344-.90625 4.132813-1.617187 6.277344-2.410156l-.074218-.625c-2.289063-.183594-4.617188-.199219-6.933594-.011719-1.164063.078125-2.3125.238282-3.476563.390625-1.148437.207031-2.300781.417969-3.441406.6875-1.144531.257813-2.320313.457031-3.488281.710938-1.160156.277343-2.253906.738281-3.230469 1.425781-.425781.308594-.847656.636719-1.253906.988281-1.976563 1.710938-4.871094 1.859375-7.101563.492188-1.914062-1.171875-3.828125-2.351563-5.75-3.511719-2.433594-1.472656-4.933594-2.816406-7.480468-4.0625.945312-.144531 1.839843-.347656 2.722656-.589844 1.035156-.296875 1.992187-.734375 2.890625-1.34375.902343-.601562 1.808593-1.230468 2.78125-1.710937.957031-.507813 1.945312-.957031 2.941406-1.414063.988281-.457031 1.988281-.9375 3.011719-1.335937 2.027344-.90625 4.132812-1.617188 6.28125-2.410157l-.074219-.625c-2.289063-.1875-4.617187-.199218-6.9375-.015624-1.160156.082031-2.3125.242187-3.476563.394531-1.144531.207031-2.300781.414062-3.441406.683593-1.140625.261719-2.316406.460938-3.488281.714844-1.15625.273438-2.25.738282-3.226563 1.425782-.960937.691406-1.886718 1.480468-2.6875 2.433593-.917968 1.089844-2.402343 1.507813-3.730468.992188-3.445313-1.324219-9.691406-3.675781-13.101563-4.695313-4.753906-1.386718-9.589843-2.601562-14.695312-3.207031l-.476563 1.023437c3.722656 3.527344 7.679688 6.53125 11.710938 9.367188 4.039062 2.820312 8.167968 5.4375 12.378906 7.878906.074219.042969.148438.085938.222656.128906 1.359375.789063 1.9375 2.390626 1.503906 3.902344-.320312 1.109375-.464843 2.234375-.523437 3.339844-.046875 1.195312.152344 2.363281.546875 3.488281.421875 1.121094.890625 2.214844 1.289062 3.316407.390626 1.105468.835938 2.191406 1.285157 3.265624.5 1.0625.988281 2.117188 1.550781 3.136719 1.097656 2.050781 2.367188 4 3.761719 5.824219l.566406-.273438c-.496094-2.234374-1.035156-4.390624-1.371094-6.585937-.214843-1.078125-.355469-2.175781-.503906-3.257813-.15625-1.082031-.308594-2.15625-.40625-3.238281-.117187-1.078125-.078125-2.179687-.058594-3.265625.019531-1.082031-.128906-2.128906-.4375-3.160156-.351562-1.113281-.769531-2.214844-1.332031-3.339844 2.285156 1.136719 4.605469 2.195313 6.964844 3.179688 1.890625.769531 4.429687 1.835937 6.65625 2.78125 2.367187 1.003906 3.894531 3.40625 3.652344 5.96875-.121094 1.25-.054688 2.511718-.117188 3.664062-.046875 1.191406.152344 2.359375.546875 3.484375.421875 1.121094.890625 2.21875 1.289063 3.320313.390624 1.105468.839843 2.191406 1.285156 3.265625.5 1.058593.988281 2.113281 1.550781 3.136719 1.097656 2.046874 2.367187 4 3.765625 5.824218l.5625-.273437c-.496094-2.234375-1.035156-4.390625-1.371094-6.589844-.214844-1.078125-.355468-2.175781-.503906-3.257813-.15625-1.082031-.308594-2.15625-.402344-3.238281-.121094-1.078125-.082031-2.179687-.0625-3.261719.019532-1.085937-.128906-2.128906-.4375-3.160156-.621094-1.960937-1.429687-3.890625-2.945312-5.972656 4.398437 2.042969 8.824218 4.050781 13.1875 6.15625l.171875.078125c2.683593 1.222656 4.582031 3.800781 4.730469 6.742187.039062.832032.160156 1.648438.320312 2.441407.25 1.167969.738281 2.25 1.402344 3.242187.683594.976563 1.414062 1.921875 2.078125 2.890625.652343.972657 1.359375 1.910157 2.058593 2.839844.753907.898437 1.488282 1.800781 2.289063 2.648437 1.578125 1.707032 3.292969 3.277344 5.101563 4.695313l.476562-.40625c-1.035156-2.039063-2.097656-3.992187-2.972656-6.03125zm0 0" fill="url(#n)"/><path d="m299.742188 110.507812c23.722656 2.011719 70.328124 1.050782 105.617187-30.378906 1.984375-1.765625 4.71875-2.5625 7.308594-1.960937 3.175781.742187 5.644531 3.457031-.117188 12.105469-10.085937 15.128906-36.3125 46.398437-81.703125 53.457031 0 0-32.507812 5.972656-43.183594-15.441407-4.277343-8.582031 2.527344-18.589843 12.078126-17.78125zm0 0" fill="url(#o)"/><path d="m356.539062 106.875s-53.15625-28.316406 6.992188-75.492188c2.511719-1.96875 6.128906-1.582031 8.199219.84375 9.949219 11.671876 32.476562 45.914063-15.191407 74.648438zm0 0" fill="url(#p)"/><path d="m371.730469 32.226562c-1.148438-1.347656-2.769531-2.0625-4.417969-2.097656-9.523438 35.585938-10.773438 76.746094-10.773438 76.746094 47.667969-28.734375 25.140626-62.976562 15.191407-74.648438zm0 0" fill="url(#q)"/></svg>